<svg xmlns:dc="http://purl.org/dc/elements/1.1/" xmlns:cc="http://creativecommons.org/ns#" xmlns:rdf="http://www.w3.org/1999/02/22-rdf-syntax-ns#" xmlns:svg="http://www.w3.org/2000/svg" xmlns="http://www.w3.org/2000/svg" xmlns:sodipodi="http://sodipodi.sourceforge.net/DTD/sodipodi-0.dtd" xmlns:inkscape="http://www.inkscape.org/namespaces/inkscape" version="1.1" x="0px" y="0px" viewBox="0 0 100 125"><g transform="translate(0,-952.36218)"><path style="text-indent:0;text-transform:none;direction:ltr;block-progression:tb;baseline-shift:baseline;color:#000000;enable-background:accumulate;" d="m 43.0032,965.36215 c -16.54652,0 -30.00322,13.45087 -30.00322,29.99058 0,16.53957 13.45669,29.99057 30.00322,29.99057 7.55787,0 14.47152,-2.7787 19.75212,-7.4038 l 20.846,20.8371 c 0.7811,0.7808 2.0316,0.7808 2.8128,0 0.7812,-0.7808 0.7812,-2.062 0,-2.8428 l -20.846,-20.8372 c 4.621,-5.277 7.4383,-12.1947 7.4383,-19.74387 0,-16.53971 -13.4567,-29.99058 -30.00322,-29.99058 z m 0,3.99874 c 14.38452,0 26.00282,11.61326 26.00282,25.99184 0,14.37847 -11.6183,25.99187 -26.00282,25.99187 -14.3845,0 -26.00279,-11.6134 -26.00279,-25.99187 0,-14.37858 11.61828,-25.99184 26.00279,-25.99184 z" fill="#000000" fill-opacity="1" marker="none" visibility="visible" display="inline" overflow="visible"/></g><text x="0" y="115" fill="#000000" font-size="5px" font-weight="bold" font-family="'Helvetica Neue', Helvetica, Arial-Unicode, Arial, Sans-serif">Created by Zaff Studio</text><text x="0" y="120" fill="#000000" font-size="5px" font-weight="bold" font-family="'Helvetica Neue', Helvetica, Arial-Unicode, Arial, Sans-serif">from the Noun Project</text></svg>