<svg xmlns:dc="http://purl.org/dc/elements/1.1/" xmlns:cc="http://creativecommons.org/ns#" xmlns:rdf="http://www.w3.org/1999/02/22-rdf-syntax-ns#" xmlns:svg="http://www.w3.org/2000/svg" xmlns="http://www.w3.org/2000/svg" xmlns:sodipodi="http://sodipodi.sourceforge.net/DTD/sodipodi-0.dtd" xmlns:inkscape="http://www.inkscape.org/namespaces/inkscape" version="1.1" x="0px" y="0px" viewBox="0 0 100 125"><g transform="translate(0,-952.36218)"><path style="text-indent:0;text-transform:none;direction:ltr;block-progression:tb;baseline-shift:baseline;color:#000000;enable-background:accumulate;" d="m 14.999998,964.36954 c -4.39741,0 -8.0000005,3.6026 -8.0000005,8 l 0,40.00006 c 0,4.3974 3.6025905,8 8.0000005,8 l 6.78125,0 -1.8125,17.7812 a 2.0002,2.0002 0 0 0 3.375,1.625 l 19.468749,-19.4062 9.1875,0 0,3.0625 c 0,3.263 2.70421,5.9375 5.96875,5.9375 l 15.031255,0 10.59375,10.4062 a 2.0002,2.0002 0 0 0 3.375,-1.7812 l -1.53125,-8.625 1.59375,0 c 3.26454,0 5.96875,-2.6745 5.96875,-5.9375 l 0,-19.1251 c 0,-3.263 -2.70421,-5.93746 -5.96875,-5.93746 l -6.03125,0 0,-26 c 0,-4.3974 -3.60259,-8 -8,-8 l -58.000005,0 z m 0,4 58.000005,0 c 2.25061,0 4,1.7494 4,4 l 0,40.00006 c 0,2.2506 -1.74939,4 -4,4 l -31.000005,0 a 2.0002,2.0002 0 0 0 -1.40625,0.5625 l -16.09375,16.0312 1.5,-14.4062 a 2.0002,2.0002 0 0 0 -2,-2.1875 l -9,0 c -2.25061,0 -4,-1.7494 -4,-4 l 0,-40.00006 c 0,-2.2506 1.74939,-4 4,-4 z m 9,17 c -3.842301,0 -7,3.1577 -7,7 0,3.8423 3.157699,7 7,7 3.8423,0 7,-3.1577 7,-7 0,-3.8423 -3.1577,-7 -7,-7 z m 20.031249,0 c -3.8423,0 -7,3.1577 -7,7 0,3.8423 3.1577,7 7,7 3.8423,0 7,-3.1577 7,-7 0,-3.8423 -3.1577,-7 -7,-7 z m 19.96875,0 c -3.8423,0 -7,3.1577 -7,7 0,3.8423 3.1577,7 7,7 3.8423,0 7,-3.1577 7,-7 0,-3.8423 -3.1577,-7 -7,-7 z m -40,4 c 1.68054,0 3,1.3195 3,3 0,1.6806 -1.31946,3 -3,3 -1.68054,0 -3,-1.3194 -3,-3 0,-1.6805 1.31946,-3 3,-3 z m 20.03125,0 c 1.68054,0 3,1.3195 3,3 0,1.6806 -1.31946,3 -3,3 -1.68054,0 -3,-1.3194 -3,-3 0,-1.6805 1.31946,-3 3,-3 z m 19.96875,0 c 1.68054,0 3,1.3195 3,3 0,1.6806 -1.31946,3 -3,3 -1.68054,0 -3,-1.3194 -3,-3 0,-1.6805 1.31946,-3 3,-3 z m 17.000005,12.99996 6.03125,0 c 1.12788,0 1.96875,0.845 1.96875,1.9375 l 0,19.1251 c 0,1.0926 -0.84087,1.9375 -1.96875,1.9375 l -3.96875,0 a 2.0002,2.0002 0 0 0 -1.96875,2.3437 l 0.84375,4.8438 -6.71875,-6.625 a 2.0002,2.0002 0 0 0 -1.40625,-0.5625 l -15.843755,0 c -1.1279,0 -1.96875,-0.8449 -1.96875,-1.9375 l 0,-3.0625 17.000005,0 c 4.39741,0 8,-3.6026 8,-8 l 0,-10.0001 z" fill="#000000" fill-opacity="1" stroke="none" marker="none" visibility="visible" display="inline" overflow="visible"/></g><text x="0" y="115" fill="#000000" font-size="5px" font-weight="bold" font-family="'Helvetica Neue', Helvetica, Arial-Unicode, Arial, Sans-serif">Created by iconsphere</text><text x="0" y="120" fill="#000000" font-size="5px" font-weight="bold" font-family="'Helvetica Neue', Helvetica, Arial-Unicode, Arial, Sans-serif">from the Noun Project</text></svg>