<svg xmlns="http://www.w3.org/2000/svg" xmlns:xlink="http://www.w3.org/1999/xlink" version="1.1" x="0px" y="0px" viewBox="0 0 100 125" style="enable-background:new 0 0 100 100;" xml:space="preserve"><style type="text/css">
	.st0{fill:none;stroke:#000000;stroke-width:6;stroke-miterlimit:10;}
	.st1{fill:none;stroke:#000000;stroke-width:6;stroke-linecap:round;stroke-miterlimit:10;}
	.st2{fill:none;stroke:#000000;stroke-width:8;stroke-miterlimit:10;}
	.st3{fill:none;stroke:#000000;stroke-width:4;stroke-miterlimit:10;}
	.st4{fill:none;stroke:#000000;stroke-width:4;stroke-linecap:round;stroke-miterlimit:10;}
	.st5{fill:none;stroke:#000000;stroke-width:2;stroke-linecap:round;stroke-miterlimit:10;}
	.st6{fill:none;stroke:#000000;stroke-width:2;stroke-miterlimit:10;}
	.st7{fill:none;stroke:#000000;stroke-width:8;stroke-linecap:round;stroke-miterlimit:10;}
</style><path d="M21,82h17c1.2,6.3,6.6,11,13,11s11.8-4.7,13-11h15c4.7,0,8.4-3.7,8.4-8.4c0-2.8-1.4-5.5-3.8-7.1c-2.3-1.6-6.1-6.8-6.1-24.3  c0-16.8-9.9-23.9-17.6-26.9C60,14.8,60,14.4,60,14c0-5.5-4.5-10-10-10S40,8.5,40,14c0,0.4,0,0.9,0.1,1.3c-7.7,3-17.6,10.1-17.6,26.9  c0,17.5-3.8,22.7-6.1,24.3c-2.4,1.6-3.8,4.3-3.8,7.1C12.6,78.3,16.3,82,21,82z M51,87c-2.4,0-4.6-1.2-6-3h12  C55.6,85.8,53.4,87,51,87z M50,10c2.1,0,3.7,1.6,4,3.6c-3.1-0.5-5.9-0.3-7.9,0C46.3,11.6,47.9,10,50,10z M19.7,71.4  c5.8-4,8.7-13.8,8.7-29.3c0-14.5,9-20.1,16.5-22.2l0.2-0.1c0,0,2.1-0.7,5-0.7c1.5,0,3.2,0.2,4.9,0.7l0.1,0  c7.5,2.1,16.5,7.7,16.5,22.2c0,8.8,0.9,15.7,2.8,20.8H40c-1.7,0-3,1.3-3,3s1.3,3,3,3h37.7c0.8,1,1.7,1.8,2.6,2.4  c0.7,0.5,1.2,1.3,1.2,2.1c0,1.4-1.1,2.5-2.5,2.5H21.1c-1.4,0-2.5-1.1-2.5-2.5C18.6,72.7,19,71.9,19.7,71.4z"/><path d="M30.3,68.5c0.2,0.1,0.3,0.2,0.5,0.3c0.2,0.1,0.4,0.1,0.6,0.2c0.2,0,0.4,0.1,0.6,0.1c0.8,0,1.6-0.3,2.1-0.9  c0.6-0.6,0.9-1.3,0.9-2.1c0-0.2,0-0.4-0.1-0.6c0-0.2-0.1-0.4-0.2-0.6c-0.1-0.2-0.2-0.3-0.3-0.5c-0.1-0.2-0.2-0.3-0.4-0.5  c-0.1-0.1-0.3-0.3-0.4-0.4c-0.2-0.1-0.3-0.2-0.5-0.3c-0.2-0.1-0.4-0.1-0.6-0.2c-1-0.2-2,0.1-2.7,0.8c-0.1,0.1-0.3,0.3-0.4,0.5  c-0.1,0.2-0.2,0.3-0.3,0.5c-0.1,0.2-0.1,0.4-0.2,0.6c0,0.2-0.1,0.4-0.1,0.6c0,0.8,0.3,1.6,0.9,2.1C30,68.3,30.2,68.4,30.3,68.5z"/><text x="0" y="115" fill="#000000" font-size="5px" font-weight="bold" font-family="'Helvetica Neue', Helvetica, Arial-Unicode, Arial, Sans-serif">Created by praveen patchu</text><text x="0" y="120" fill="#000000" font-size="5px" font-weight="bold" font-family="'Helvetica Neue', Helvetica, Arial-Unicode, Arial, Sans-serif">from the Noun Project</text></svg>