<svg xmlns="http://www.w3.org/2000/svg" xmlns:xlink="http://www.w3.org/1999/xlink" version="1.1" x="0px" y="0px" viewBox="0 0 100 125" style="enable-background:new 0 0 100 100;" xml:space="preserve"><path d="M91.9,13H8.1C5.8,13,4,14.8,4,17.1v64.9C4,84.2,5.8,86,8.1,86h83.9c2.2,0,4.1-1.8,4.1-4.1V17.1  C96,14.8,94.2,13,91.9,13z M30,20h28c1.1,0,2,0.9,2,2c0,1.1-0.9,2-2,2H30c-1.1,0-2-0.9-2-2C28,20.9,28.9,20,30,20z M30,30h55  c1.1,0,2,0.9,2,2c0,1.1-0.9,2-2,2H30c-1.1,0-2-0.9-2-2C28,30.9,28.9,30,30,30z M11,20h14v14H11V20z M90,81H10V40h80V81z"/><text x="0" y="115" fill="#000000" font-size="5px" font-weight="bold" font-family="'Helvetica Neue', Helvetica, Arial-Unicode, Arial, Sans-serif">Created by Aham Brahma</text><text x="0" y="120" fill="#000000" font-size="5px" font-weight="bold" font-family="'Helvetica Neue', Helvetica, Arial-Unicode, Arial, Sans-serif">from the Noun Project</text></svg>