<svg xmlns="http://www.w3.org/2000/svg" xmlns:xlink="http://www.w3.org/1999/xlink" version="1.1" x="0px" y="0px" viewBox="0 0 100 125" enable-background="new 0 0 100 100" xml:space="preserve"><path d="M94.8,50c0-12-4.7-23.2-13.1-31.7C73.2,9.8,62,5.2,50,5.2S26.8,9.8,18.3,18.3C9.8,26.8,5.2,38,5.2,50s4.7,23.2,13.1,31.7  S38,94.8,50,94.8s23.2-4.7,31.7-13.1S94.8,62,94.8,50z M50,91.3C27.2,91.3,8.7,72.8,8.7,50C8.7,27.2,27.2,8.7,50,8.7  S91.3,27.2,91.3,50C91.3,72.8,72.8,91.3,50,91.3z M29.8,24.9h40.4v3.5H29.8V24.9z M50,34.8l12.4,12.4l-2.5,2.5l-8.1-8.1v32.6h-3.5  V41.6l-8.1,8.1l-2.5-2.5L50,34.8z"/><text x="0" y="115" fill="#000000" font-size="5px" font-weight="bold" font-family="'Helvetica Neue', Helvetica, Arial-Unicode, Arial, Sans-serif">Created by Gregor Cresnar</text><text x="0" y="120" fill="#000000" font-size="5px" font-weight="bold" font-family="'Helvetica Neue', Helvetica, Arial-Unicode, Arial, Sans-serif">from the Noun Project</text></svg>